<svg width="638" height="415" viewBox="0 0 638 415" fill="none" xmlns="http://www.w3.org/2000/svg">
<rect width="638" height="372" rx="80" fill="#44A0F4"/>
<mask id="mask0_1949_40" style="mask-type:alpha" maskUnits="userSpaceOnUse" x="166" y="33" width="452" height="452">
<circle cx="392" cy="259" r="216" stroke="#FFB72C" stroke-width="20"/>
</mask>
<g mask="url(#mask0_1949_40)">
<rect x="-20" y="-16.7071" width="663.778" height="387.03" rx="80" fill="#FFB72C"/>
</g>
<path d="M273.704 179.2H288.808V224H273.704V207.488H259.752V224H244.648V179.2H259.752V195.072H273.704V179.2ZM302.87 186.176C297.558 186.176 294.166 182.976 294.166 178.816C294.166 174.656 297.558 171.456 302.87 171.456C308.182 171.456 311.574 174.4 311.574 178.56C311.574 182.976 308.182 186.176 302.87 186.176ZM295.638 224V188.992H310.102V224H295.638ZM330.273 192.768C332.833 189.824 336.737 188.352 341.601 188.352V201.152C340.321 200.96 339.425 200.896 338.401 200.896C334.049 200.896 330.977 202.88 330.977 208.448V224H316.513V188.992H330.273V192.768ZM382.636 206.464C382.636 207.488 382.508 208.832 382.444 209.856H358.124C359.148 212.544 361.58 213.952 365.164 213.952C368.364 213.952 370.156 213.12 372.46 211.392L380.012 219.008C376.62 222.72 371.692 224.64 364.716 224.64C351.852 224.64 343.532 216.896 343.532 206.464C343.532 195.84 352.044 188.352 363.372 188.352C373.74 188.352 382.636 194.624 382.636 206.464ZM363.5 198.208C360.492 198.208 358.444 199.936 357.868 202.88H369.132C368.556 199.936 366.444 198.208 363.5 198.208ZM422.068 188.352C434.1 188.352 441.012 193.536 441.012 205.184V224H427.572V219.392C425.908 222.912 422.58 224.64 417.652 224.64C409.076 224.64 404.66 219.776 404.66 213.76C404.66 206.976 409.78 203.2 420.66 203.2H426.484C426.036 200.512 423.988 199.104 419.892 199.104C416.756 199.104 413.236 200.128 410.932 201.856L406.324 192.32C410.42 189.76 416.628 188.352 422.068 188.352ZM422.003 215.936C423.988 215.936 425.78 214.912 426.548 212.608V210.176H422.964C419.892 210.176 418.548 211.2 418.548 213.12C418.548 214.72 419.828 215.936 422.003 215.936ZM254.376 302V268.912H241.256V257.2H282.6V268.912H269.48V302H254.376ZM301.071 302.64C289.231 302.64 280.719 295.088 280.719 284.464C280.719 273.84 289.231 266.352 301.071 266.352C312.975 266.352 321.423 273.84 321.423 284.464C321.423 295.088 312.975 302.64 301.071 302.64ZM301.071 291.376C304.271 291.376 306.767 289.008 306.767 284.464C306.767 279.92 304.271 277.616 301.071 277.616C297.871 277.616 295.375 279.92 295.375 284.464C295.375 289.008 297.871 291.376 301.071 291.376ZM349.31 266.352C358.462 266.352 366.206 273.264 366.206 284.528C366.206 295.792 358.462 302.64 349.31 302.64C345.47 302.64 342.526 301.68 340.414 299.632V314.416H325.95V266.992H339.71V269.872C341.822 267.504 344.958 266.352 349.31 266.352ZM345.854 291.376C349.054 291.376 351.55 289.072 351.55 284.528C351.55 279.984 349.054 277.616 345.854 277.616C342.654 277.616 340.158 279.984 340.158 284.528C340.158 289.072 342.654 291.376 345.854 291.376ZM393.099 290.736L396.555 300.784C394.315 302.064 391.051 302.64 387.659 302.64C377.995 302.64 372.363 298.096 372.363 288.432V279.472H367.562V268.912H372.363V259.12H386.827V268.912H393.995V279.472H386.827V288.304C386.827 290.48 388.107 291.696 389.835 291.696C390.987 291.696 392.139 291.376 393.099 290.736ZM415.88 266.352C427.912 266.352 434.824 271.536 434.824 283.184V302H421.384V297.392C419.72 300.912 416.392 302.64 411.464 302.64C402.888 302.64 398.472 297.776 398.472 291.76C398.472 284.976 403.592 281.2 414.472 281.2H420.296C419.848 278.512 417.8 277.104 413.704 277.104C410.568 277.104 407.048 278.128 404.744 279.856L400.136 270.32C404.232 267.76 410.44 266.352 415.88 266.352ZM415.816 293.936C417.8 293.936 419.592 292.912 420.36 290.608V288.176H416.776C413.704 288.176 412.36 289.2 412.36 291.12C412.36 292.72 413.64 293.936 415.816 293.936ZM441.075 302V254.512H455.539V302H441.075ZM499.198 284.464C499.198 285.488 499.07 286.832 499.006 287.856H474.686C475.71 290.544 478.142 291.952 481.726 291.952C484.926 291.952 486.718 291.12 489.022 289.392L496.574 297.008C493.182 300.72 488.254 302.64 481.278 302.64C468.414 302.64 460.094 294.896 460.094 284.464C460.094 273.84 468.606 266.352 479.934 266.352C490.302 266.352 499.198 272.624 499.198 284.464ZM480.062 276.208C477.054 276.208 475.006 277.936 474.43 280.88H485.694C485.118 277.936 483.006 276.208 480.062 276.208ZM528.083 266.352C536.147 266.352 542.419 271.024 542.419 282.032V302H527.955V284.528C527.955 280.176 526.291 278.512 523.667 278.512C520.723 278.512 518.227 280.368 518.227 285.552V302H503.763V266.992H517.523V270.448C520.275 267.696 523.987 266.352 528.083 266.352ZM571.036 290.736L574.492 300.784C572.252 302.064 568.988 302.64 565.596 302.64C555.932 302.64 550.3 298.096 550.3 288.432V279.472H545.5V268.912H550.3V259.12H564.764V268.912H571.932V279.472H564.764V288.304C564.764 290.48 566.044 291.696 567.772 291.696C568.924 291.696 570.076 291.376 571.036 290.736Z" fill="white"/>
<path d="M117.109 124.067C119.632 126.216 123.419 125.913 125.567 123.391C127.716 120.868 127.413 117.081 124.891 114.933L117.109 124.067ZM53.0215 56.0191C49.7184 56.2834 47.2549 59.1753 47.5191 62.4785L51.8254 116.307C52.0896 119.61 54.9816 122.073 58.2847 121.809C61.5879 121.545 64.0514 118.653 63.7871 115.35L59.9594 67.5024L107.807 63.6747C111.11 63.4104 113.573 60.5185 113.309 57.2153C113.045 53.9121 110.153 51.4486 106.85 51.7129L53.0215 56.0191ZM124.891 114.933L57.3908 57.4326L49.6092 66.5675L117.109 124.067L124.891 114.933Z" fill="white"/>
</svg>
