<svg width="638" height="465" viewBox="0 0 638 465" fill="none" xmlns="http://www.w3.org/2000/svg">
<rect width="638" height="372" rx="80" fill="#FFB72C"/>
<mask id="mask0_2047_2948" style="mask-type:alpha" maskUnits="userSpaceOnUse" x="166" y="33" width="452" height="452">
<circle cx="392" cy="259" r="216" stroke="#FFB72C" stroke-width="20"/>
</mask>
<g mask="url(#mask0_2047_2948)">
<rect x="-20" y="-16.707" width="663.778" height="387.03" rx="80" fill="#44A0F4"/>
</g>
<path d="M273.704 179.2H288.808V224H273.704V179.2ZM259.752 224H244.648V179.2H259.752V224ZM274.728 207.488H258.728V195.072H274.728V207.488ZM295.638 224V188.992H310.102V224H295.638ZM302.87 186.176C300.224 186.176 298.112 185.472 296.534 184.064C294.955 182.656 294.166 180.907 294.166 178.816C294.166 176.725 294.955 174.976 296.534 173.568C298.112 172.16 300.224 171.456 302.87 171.456C305.515 171.456 307.627 172.117 309.206 173.44C310.784 174.763 311.574 176.469 311.574 178.56C311.574 180.779 310.784 182.613 309.206 184.064C307.627 185.472 305.515 186.176 302.87 186.176ZM316.513 224V188.992H330.273V199.552L328.033 196.544C329.099 193.813 330.806 191.765 333.153 190.4C335.499 189.035 338.315 188.352 341.601 188.352V201.152C340.961 201.067 340.385 201.003 339.873 200.96C339.403 200.917 338.913 200.896 338.401 200.896C336.225 200.896 334.433 201.472 333.025 202.624C331.659 203.733 330.977 205.675 330.977 208.448V224H316.513ZM364.716 224.64C360.449 224.64 356.716 223.851 353.516 222.272C350.358 220.693 347.905 218.539 346.156 215.808C344.406 213.035 343.532 209.92 343.532 206.464C343.532 202.923 344.385 199.787 346.092 197.056C347.841 194.325 350.209 192.192 353.196 190.656C356.225 189.12 359.617 188.352 363.372 188.352C366.828 188.352 370.006 189.035 372.908 190.4C375.852 191.765 378.198 193.792 379.948 196.48C381.74 199.168 382.636 202.496 382.636 206.464C382.636 206.976 382.614 207.552 382.572 208.192C382.529 208.789 382.486 209.344 382.444 209.856H355.5V202.88H374.764L369.324 204.736C369.324 203.371 369.068 202.219 368.556 201.28C368.086 200.299 367.425 199.552 366.572 199.04C365.718 198.485 364.694 198.208 363.5 198.208C362.305 198.208 361.26 198.485 360.364 199.04C359.51 199.552 358.849 200.299 358.38 201.28C357.91 202.219 357.676 203.371 357.676 204.736V206.912C357.676 208.405 357.974 209.685 358.572 210.752C359.169 211.819 360.022 212.629 361.132 213.184C362.241 213.696 363.585 213.952 365.164 213.952C366.785 213.952 368.108 213.739 369.132 213.312C370.198 212.885 371.308 212.245 372.46 211.392L380.012 219.008C378.305 220.843 376.193 222.251 373.676 223.232C371.201 224.171 368.214 224.64 364.716 224.64ZM427.572 224V217.792L426.548 216.128V204.352C426.548 202.645 426.014 201.344 424.948 200.448C423.924 199.552 422.238 199.104 419.892 199.104C418.313 199.104 416.713 199.36 415.092 199.872C413.47 200.341 412.084 201.003 410.932 201.856L406.324 192.32C408.372 191.04 410.825 190.059 413.684 189.376C416.542 188.693 419.337 188.352 422.068 188.352C428.084 188.352 432.734 189.696 436.02 192.384C439.348 195.072 441.012 199.339 441.012 205.184V224H427.572ZM417.652 224.64C414.793 224.64 412.404 224.149 410.484 223.168C408.564 222.187 407.113 220.885 406.132 219.264C405.15 217.6 404.66 215.765 404.66 213.76C404.66 211.499 405.236 209.579 406.388 208C407.54 206.421 409.289 205.227 411.635 204.416C414.025 203.605 417.033 203.2 420.66 203.2H427.956V210.176H422.964C421.428 210.176 420.297 210.432 419.572 210.944C418.889 211.413 418.548 212.139 418.548 213.12C418.548 213.931 418.846 214.613 419.444 215.168C420.084 215.68 420.937 215.936 422.003 215.936C422.985 215.936 423.881 215.68 424.692 215.168C425.545 214.613 426.164 213.76 426.548 212.608L428.404 216.896C427.849 219.499 426.676 221.44 424.884 222.72C423.092 224 420.681 224.64 417.652 224.64ZM254.376 302V268.912H241.256V257.2H282.6V268.912H269.48V302H254.376ZM301.071 302.64C297.103 302.64 293.583 301.872 290.511 300.336C287.482 298.757 285.092 296.603 283.343 293.872C281.594 291.141 280.719 288.005 280.719 284.464C280.719 280.923 281.594 277.787 283.343 275.056C285.092 272.325 287.482 270.192 290.511 268.656C293.583 267.12 297.103 266.352 301.071 266.352C305.039 266.352 308.559 267.12 311.631 268.656C314.703 270.192 317.092 272.325 318.799 275.056C320.548 277.787 321.423 280.923 321.423 284.464C321.423 288.005 320.548 291.141 318.799 293.872C317.092 296.603 314.703 298.757 311.631 300.336C308.559 301.872 305.039 302.64 301.071 302.64ZM301.071 291.376C302.138 291.376 303.098 291.12 303.951 290.608C304.804 290.096 305.487 289.328 305.999 288.304C306.511 287.237 306.767 285.957 306.767 284.464C306.767 282.928 306.511 281.669 305.999 280.688C305.487 279.664 304.804 278.896 303.951 278.384C303.098 277.872 302.138 277.616 301.071 277.616C300.004 277.616 299.044 277.872 298.191 278.384C297.338 278.896 296.655 279.664 296.143 280.688C295.631 281.669 295.375 282.928 295.375 284.464C295.375 285.957 295.631 287.237 296.143 288.304C296.655 289.328 297.338 290.096 298.191 290.608C299.044 291.12 300.004 291.376 301.071 291.376ZM349.31 302.64C346.281 302.64 343.763 302 341.758 300.72C339.795 299.397 338.345 297.413 337.406 294.768C336.467 292.08 335.998 288.667 335.998 284.528C335.998 280.304 336.425 276.869 337.278 274.224C338.174 271.536 339.603 269.552 341.566 268.272C343.529 266.992 346.11 266.352 349.31 266.352C352.382 266.352 355.198 267.099 357.758 268.592C360.318 270.043 362.366 272.133 363.902 274.864C365.438 277.552 366.206 280.773 366.206 284.528C366.206 288.283 365.438 291.525 363.902 294.256C362.366 296.944 360.318 299.013 357.758 300.464C355.198 301.915 352.382 302.64 349.31 302.64ZM325.95 314.416V266.992H339.71V271.728L339.774 284.528L340.414 297.328V314.416H325.95ZM345.854 291.376C346.921 291.376 347.881 291.12 348.734 290.608C349.587 290.096 350.27 289.328 350.782 288.304C351.294 287.28 351.55 286.021 351.55 284.528C351.55 282.992 351.294 281.712 350.782 280.688C350.27 279.664 349.587 278.896 348.734 278.384C347.881 277.872 346.921 277.616 345.854 277.616C344.787 277.616 343.827 277.872 342.974 278.384C342.121 278.896 341.438 279.664 340.926 280.688C340.414 281.712 340.158 282.992 340.158 284.528C340.158 286.021 340.414 287.28 340.926 288.304C341.438 289.328 342.121 290.096 342.974 290.608C343.827 291.12 344.787 291.376 345.854 291.376ZM387.659 302.64C382.837 302.64 379.083 301.488 376.395 299.184C373.707 296.837 372.363 293.253 372.363 288.432V259.12H386.827V288.304C386.827 289.371 387.104 290.203 387.659 290.8C388.256 291.397 388.981 291.696 389.835 291.696C391.072 291.696 392.16 291.376 393.099 290.736L396.555 300.784C395.445 301.424 394.101 301.893 392.523 302.192C390.987 302.491 389.365 302.64 387.659 302.64ZM367.562 279.472V268.912H393.995V279.472H367.562ZM421.384 302V295.792L420.36 294.128V282.352C420.36 280.645 419.827 279.344 418.76 278.448C417.736 277.552 416.051 277.104 413.704 277.104C412.125 277.104 410.525 277.36 408.904 277.872C407.283 278.341 405.896 279.003 404.744 279.856L400.136 270.32C402.184 269.04 404.637 268.059 407.496 267.376C410.355 266.693 413.149 266.352 415.88 266.352C421.896 266.352 426.547 267.696 429.832 270.384C433.16 273.072 434.824 277.339 434.824 283.184V302H421.384ZM411.464 302.64C408.605 302.64 406.216 302.149 404.296 301.168C402.376 300.187 400.925 298.885 399.944 297.264C398.963 295.6 398.472 293.765 398.472 291.76C398.472 289.499 399.048 287.579 400.2 286C401.352 284.421 403.101 283.227 405.448 282.416C407.837 281.605 410.845 281.2 414.472 281.2H421.768V288.176H416.776C415.24 288.176 414.109 288.432 413.384 288.944C412.701 289.413 412.36 290.139 412.36 291.12C412.36 291.931 412.659 292.613 413.256 293.168C413.896 293.68 414.749 293.936 415.816 293.936C416.797 293.936 417.693 293.68 418.504 293.168C419.357 292.613 419.976 291.76 420.36 290.608L422.216 294.896C421.661 297.499 420.488 299.44 418.696 300.72C416.904 302 414.493 302.64 411.464 302.64ZM441.075 302V254.512H455.539V302H441.075ZM481.278 302.64C477.011 302.64 473.278 301.851 470.078 300.272C466.921 298.693 464.467 296.539 462.718 293.808C460.969 291.035 460.094 287.92 460.094 284.464C460.094 280.923 460.947 277.787 462.654 275.056C464.403 272.325 466.771 270.192 469.758 268.656C472.787 267.12 476.179 266.352 479.934 266.352C483.39 266.352 486.569 267.035 489.47 268.4C492.414 269.765 494.761 271.792 496.51 274.48C498.302 277.168 499.198 280.496 499.198 284.464C499.198 284.976 499.177 285.552 499.134 286.192C499.091 286.789 499.049 287.344 499.006 287.856H472.062V280.88H491.326L485.886 282.736C485.886 281.371 485.63 280.219 485.118 279.28C484.649 278.299 483.987 277.552 483.134 277.04C482.281 276.485 481.257 276.208 480.062 276.208C478.867 276.208 477.822 276.485 476.926 277.04C476.073 277.552 475.411 278.299 474.942 279.28C474.473 280.219 474.238 281.371 474.238 282.736V284.912C474.238 286.405 474.537 287.685 475.134 288.752C475.731 289.819 476.585 290.629 477.694 291.184C478.803 291.696 480.147 291.952 481.726 291.952C483.347 291.952 484.67 291.739 485.694 291.312C486.761 290.885 487.87 290.245 489.022 289.392L496.574 297.008C494.867 298.843 492.755 300.251 490.238 301.232C487.763 302.171 484.777 302.64 481.278 302.64ZM528.083 266.352C530.771 266.352 533.203 266.907 535.379 268.016C537.555 269.083 539.261 270.768 540.499 273.072C541.779 275.376 542.419 278.363 542.419 282.032V302H527.955V284.528C527.955 282.352 527.571 280.816 526.803 279.92C526.035 278.981 524.989 278.512 523.667 278.512C522.685 278.512 521.768 278.747 520.915 279.216C520.104 279.643 519.443 280.368 518.931 281.392C518.461 282.416 518.227 283.803 518.227 285.552V302H503.763V266.992H517.523V277.232L514.771 274.288C516.136 271.643 517.971 269.659 520.275 268.336C522.621 267.013 525.224 266.352 528.083 266.352ZM565.596 302.64C560.775 302.64 557.02 301.488 554.332 299.184C551.644 296.837 550.3 293.253 550.3 288.432V259.12H564.764V288.304C564.764 289.371 565.041 290.203 565.596 290.8C566.193 291.397 566.919 291.696 567.772 291.696C569.009 291.696 570.097 291.376 571.036 290.736L574.492 300.784C573.383 301.424 572.039 301.893 570.46 302.192C568.924 302.491 567.303 302.64 565.596 302.64ZM545.5 279.472V268.912H571.932V279.472H545.5Z" fill="#1B1B1B"/>
<path d="M97.1092 98.0675C99.6317 100.216 103.419 99.9133 105.567 97.3908C107.716 94.8683 107.413 91.0814 104.891 88.9325L97.1092 98.0675ZM33.0215 30.0191C29.7184 30.2834 27.2549 33.1753 27.5191 36.4785L31.8254 90.3065C32.0896 93.6097 34.9816 96.0732 38.2847 95.8089C41.5879 95.5447 44.0514 92.6527 43.7871 89.3496L39.9594 41.5024L87.8065 37.6747C91.1097 37.4104 93.5732 34.5185 93.3089 31.2153C93.0447 27.9121 90.1527 25.4486 86.8496 25.7129L33.0215 30.0191ZM104.891 88.9325L37.3908 31.4326L29.6092 40.5675L97.1092 98.0675L104.891 88.9325Z" fill="white"/>
</svg>
